<svg width="16" height="16" viewBox="0 0 16 16" fill="none" xmlns="http://www.w3.org/2000/svg">
<path d="M8 16.0011C12.4183 16.0011 16 12.4194 16 8.0011C16 3.58282 12.4183 0.00109863 8 0.00109863C3.58172 0.00109863 0 3.58282 0 8.0011C0 12.4194 3.58172 16.0011 8 16.0011Z" fill="#404040"/>
<path d="M11.1145 10.3141L11.4689 8.00107H9.25032V6.5003C9.25032 5.86804 9.5597 5.2504 10.5542 5.2504H11.5634V3.28162C11.5634 3.28162 10.6476 3.12524 9.77233 3.12524C7.9453 3.12524 6.75053 4.23226 6.75053 6.23817V8.00107H4.71875V10.3141H6.75053V15.9043C7.15779 15.9684 7.57517 16.0011 8.00043 16.0011C8.42568 16.0011 8.84306 15.9673 9.25032 15.9043V10.3141H11.1145Z" fill="#F6F4F3"/>
</svg>
