<svg display="none" width="0" height="0" version="1.1" xmlns="http://www.w3.org/2000/svg" xmlns:xlink="http://www.w3.org/1999/xlink" aria-hidden="true">
<defs>

<symbol id="gh-icon-bag" viewBox="0 0 18 18" fill="none">
  <path d="M6.34766 7.90684V3.4723C6.34766 2.00612 7.53566 0.818115 9.00184 0.818115C10.468 0.818115 11.656 2.00612 11.656 3.4723V7.90684" stroke="#404040" stroke-width="1.25" stroke-miterlimit="10" stroke-linecap="round" stroke-linejoin="round"/>
  <path d="M14.6555 17.1817H3.34491L0.818359 5.31641H17.182L14.6555 17.1817Z" stroke="#404040" stroke-width="1.25" stroke-miterlimit="10" stroke-linejoin="round"/>
</symbol>

<symbol id="gh-icon-chevron-down" viewBox="0 0 12 6" fill="none" xmlns="http://www.w3.org/2000/svg">
  <path d="M1 1L6 5L11 0.999999" stroke="#404040" stroke-width="1.5" stroke-linecap="round" stroke-linejoin="round"/>
</symbol>

<symbol id="gh-icon-close" viewBox="0 0 17 16" fill="none" xmlns="http://www.w3.org/2000/svg">
  <line x1="15.2227" y1="0.883883" x2="0.995429" y2="15.1111" stroke="#404040" stroke-width="1.25" stroke-linecap="round"/>
  <line x1="0.995212" y1="0.888916" x2="15.2224" y2="15.1161" stroke="#404040" stroke-width="1.25" stroke-linecap="round"/>
</symbol>

<symbol id="gh-icon-close-white" viewBox="0 0 17 16" fill="none" xmlns="http://www.w3.org/2000/svg">
  <line x1="15.2227" y1="0.883883" x2="0.995429" y2="15.1111" stroke="#ffffff" stroke-width="1.25" stroke-linecap="round"/>
  <line x1="0.995212" y1="0.888916" x2="15.2224" y2="15.1161" stroke="#ffffff" stroke-width="1.25" stroke-linecap="round"/>
</symbol>

<symbol id="gh-icon-ext" viewBox="0 0 17 17" fill="none" xmlns="http://www.w3.org/2000/svg">
  <path d="M7.07619 3.8999H1V15.4999H12.6V9.6999" stroke="#404040" stroke-width="1.5" stroke-linecap="round" stroke-linejoin="round"/>
  <path d="M8.54004 7.96L15.5 1M15.5 1H8.54004M15.5 1V7.96" stroke="#404040" stroke-width="1.5" stroke-linecap="round" stroke-linejoin="round"/>
</symbol>

<symbol id="gh-icon-profile" viewBox="0 0 14 18" fill="none" xmlns="http://www.w3.org/2000/svg">
  <circle cx="6.54501" cy="4.90915" r="4.09091" stroke="#404040" stroke-width="1.25"/>
  <path d="M12.2729 17.1819C12.2729 14.0188 9.70872 11.4546 6.54563 11.4546C3.38255 11.4546 0.818359 14.0188 0.818359 17.1819" stroke="#404040" stroke-width="1.25" stroke-linecap="round"/>
</symbol>

<symbol id="gh-icon-search" viewBox="0 0 18 18" fill="none" xmlns="http://www.w3.org/2000/svg">
  <path d="M6.95472 13.0908C10.3437 13.0908 13.0911 10.3435 13.0911 6.95448C13.0911 3.56546 10.3437 0.818115 6.95472 0.818115C3.5657 0.818115 0.818359 3.56546 0.818359 6.95448C0.818359 10.3435 3.5657 13.0908 6.95472 13.0908Z" stroke="#404040" stroke-width="1.25" stroke-linecap="round" stroke-linejoin="round"/>
  <path d="M11.2939 11.2942L17.1816 17.1818" stroke="#404040" stroke-width="1.25" stroke-linecap="round" stroke-linejoin="round"/>
</symbol>

<symbol id="gh-icon-social-fb" viewBox="0 0 16 16" fill="none" xmlns="http://www.w3.org/2000/svg">
  <path d="M8 16.0011C12.4183 16.0011 16 12.4194 16 8.0011C16 3.58282 12.4183 0.00109863 8 0.00109863C3.58172 0.00109863 0 3.58282 0 8.0011C0 12.4194 3.58172 16.0011 8 16.0011Z" fill="#404040"/>
  <path d="M11.1145 10.3141L11.4689 8.00107H9.25032V6.5003C9.25032 5.86804 9.5597 5.2504 10.5542 5.2504H11.5634V3.28162C11.5634 3.28162 10.6476 3.12524 9.77233 3.12524C7.9453 3.12524 6.75053 4.23226 6.75053 6.23817V8.00107H4.71875V10.3141H6.75053V15.9043C7.15779 15.9684 7.57517 16.0011 8.00043 16.0011C8.42568 16.0011 8.84306 15.9673 9.25032 15.9043V10.3141H11.1145Z" fill="#F6F4F3"/>
</symbol>

<symbol id="gh-icon-social-ig" viewBox="0 0 16 16" fill="none" xmlns="http://www.w3.org/2000/svg">
  <path d="M8.00002 0C5.82734 0 5.55489 0.00921719 4.7016 0.0481342C3.8501 0.0869798 3.26855 0.222237 2.75968 0.419966C2.23361 0.624411 1.78747 0.897974 1.34273 1.34271C0.897974 1.78744 0.624411 2.23363 0.41999 2.7597C0.222213 3.26855 0.0870036 3.8501 0.0481104 4.7016C0.00919338 5.55489 0 5.82734 0 8.00002C0 10.1727 0.00919338 10.4451 0.0481104 11.2984C0.0870036 12.1499 0.222213 12.7314 0.41999 13.2403C0.624435 13.7664 0.897998 14.2125 1.34273 14.6573C1.78749 15.102 2.23361 15.3756 2.75968 15.58C3.26855 15.7778 3.8501 15.913 4.7016 15.9519C5.55489 15.9908 5.82734 16 8.00002 16C10.1727 16 10.4451 15.9908 11.2984 15.9519C12.1499 15.913 12.7314 15.7778 13.2403 15.58C13.7664 15.3756 14.2125 15.102 14.6573 14.6573C15.102 14.2125 15.3756 13.7664 15.58 13.2403C15.7778 12.7314 15.913 12.1499 15.9519 11.2984C15.9908 10.4451 16 10.1727 16 8.00002C16 5.82734 15.9908 5.55489 15.9519 4.7016C15.913 3.8501 15.7778 3.26855 15.58 2.7597C15.3756 2.23363 15.102 1.78744 14.6573 1.34271C14.2125 0.897974 13.7664 0.624411 13.2403 0.419966C12.7314 0.222237 12.1499 0.0869798 11.2984 0.0481342C10.4451 0.00921719 10.1727 0 8.00002 0ZM8.00002 1.44143C10.1361 1.44143 10.3891 1.4496 11.2327 1.48809C12.0127 1.52365 12.4363 1.65397 12.7182 1.76353C13.0916 1.90867 13.3581 2.08201 13.638 2.36196C13.918 2.6419 14.0913 2.90842 14.2365 3.28182C14.346 3.56372 14.4764 3.98733 14.5119 4.76731C14.5504 5.61089 14.5586 5.86392 14.5586 8C14.5586 10.1361 14.5504 10.3891 14.5119 11.2327C14.4764 12.0127 14.346 12.4363 14.2365 12.7182C14.0913 13.0916 13.918 13.3581 13.638 13.638C13.3581 13.918 13.0916 14.0913 12.7182 14.2365C12.4363 14.346 12.0127 14.4764 11.2327 14.5119C10.3893 14.5504 10.1362 14.5586 8 14.5586C5.86375 14.5586 5.61079 14.5504 4.76731 14.5119C3.98731 14.4764 3.56372 14.346 3.28184 14.2365C2.90839 14.0913 2.6419 13.918 2.36198 13.638C2.08204 13.3581 1.90867 13.0916 1.76353 12.7182C1.65397 12.4363 1.52367 12.0127 1.48809 11.2327C1.4496 10.3891 1.44143 10.1361 1.44143 8C1.44143 5.86392 1.4496 5.61089 1.48809 4.76731C1.52367 3.98731 1.65397 3.56372 1.76353 3.28184C1.90867 2.90839 2.08204 2.6419 2.36196 2.36198C2.6419 2.08201 2.90842 1.90867 3.28182 1.76353C3.56372 1.65397 3.98733 1.52365 4.76731 1.48809C5.61089 1.4496 5.86392 1.44143 8 1.44143" fill="#404040"/>
  <path d="M7.99973 10.6666C6.52693 10.6666 5.33303 9.47274 5.33303 7.99999C5.33303 6.52719 6.52693 5.33329 7.99973 5.33329C9.47248 5.33329 10.6664 6.52719 10.6664 7.99999C10.6664 9.47274 9.47248 10.6666 7.99973 10.6666ZM7.99973 3.89186C5.73085 3.89186 3.8916 5.73111 3.8916 7.99999C3.8916 10.2688 5.73085 12.1081 7.99973 12.1081C10.2686 12.1081 12.1078 10.2688 12.1078 7.99999C12.1078 5.73111 10.2686 3.89186 7.99973 3.89186M13.2301 3.72955C13.2301 4.25976 12.8003 4.68954 12.2701 4.68954C11.74 4.68954 11.3101 4.25976 11.3101 3.72955C11.3101 3.19936 11.74 2.76953 12.2701 2.76953C12.8003 2.76953 13.2301 3.19936 13.2301 3.72955" fill="#404040"/>
</symbol>

<symbol id="gh-icon-social-pin" viewBox="0 0 16 16" fill="none" xmlns="http://www.w3.org/2000/svg">
  <path d="M0 8.0008C0.0416042 5.73017 0.843284 3.83398 2.40664 2.31383C3.97 0.793679 5.83418 0.0208021 8.0008 0C10.3338 0.0416042 12.246 0.838484 13.7358 2.39064C15.2255 3.94279 15.9808 5.81338 16.0016 8.0008C15.96 10.2506 15.1583 12.142 13.595 13.6734C12.0316 15.2031 10.1674 15.9792 8.0008 16C7.25033 16 6.50145 15.8848 5.75098 15.656C5.89659 15.4271 6.0422 15.1663 6.18782 14.8751C6.35424 14.5215 6.56226 13.8542 6.81348 12.8749C6.87589 12.6045 6.9703 12.2396 7.09511 11.7804C7.24072 12.03 7.49035 12.2588 7.84558 12.4684C8.78328 12.9053 9.77218 12.8637 10.8139 12.3436C11.8972 11.718 12.6477 10.7499 13.0637 9.43774C13.4381 8.06321 13.3917 6.78628 12.9229 5.61016C12.454 4.43244 11.6156 3.58436 10.4074 3.06271C8.88729 2.62586 7.40714 2.67227 5.9702 3.20352C4.53325 3.73477 3.53315 4.64687 2.9699 5.93819C2.82428 6.41664 2.73627 6.89189 2.70427 7.36074C2.67227 7.82958 2.68827 8.28723 2.75068 8.73527C2.81308 9.18332 2.9699 9.58496 3.21952 9.93859C3.46915 10.2922 3.80358 10.5643 4.21962 10.7515C4.32363 10.7931 4.40684 10.7931 4.46925 10.7515C4.55246 10.7099 4.63566 10.5435 4.71887 10.2522C4.80208 9.961 4.83408 9.76258 4.81328 9.65857C4.79248 9.61696 4.75088 9.54336 4.68847 9.43934C4.25163 8.73047 4.10441 7.9864 4.25163 7.20552C4.39724 6.42464 4.72047 5.76218 5.21972 5.22132C5.991 4.53325 6.89189 4.15882 7.92239 4.09641C8.9529 4.034 9.83458 4.31563 10.5627 4.93969C10.9579 5.39734 11.2139 5.9494 11.3275 6.59586C11.4411 7.24232 11.4427 7.86159 11.3275 8.45525C11.2123 9.04891 11.0091 9.60576 10.7179 10.1274C10.1962 10.9403 9.58176 11.3563 8.87449 11.3771C8.45845 11.3563 8.11921 11.1947 7.85839 10.8923C7.59756 10.5899 7.51915 10.241 7.62476 9.84578C7.66637 9.61696 7.79118 9.16892 7.9992 8.50165C8.20722 7.83438 8.32243 7.33513 8.34324 7.0023C8.28083 6.21022 7.91599 5.80378 7.24873 5.78298C6.72707 5.84538 6.34303 6.08061 6.09181 6.48545C5.84058 6.89029 5.70617 7.35594 5.68537 7.87599C5.74777 8.48085 5.84218 8.89689 5.967 9.12571C5.73817 10.0634 5.56056 10.8139 5.43574 11.3755C5.39414 11.5212 5.27893 11.9692 5.09171 12.7197C4.90449 13.4701 4.80048 14.043 4.77968 14.4382V15.3135C3.30113 14.6255 2.13301 13.6318 1.28013 12.3292C0.427243 11.0267 0 9.58336 0 8.0008Z" fill="#404040"/>
</symbol>

<symbol id="gh-icon-left-arrow" viewBox="0 0 8 16" fill="none" xmlns="http://www.w3.org/2000/svg">
  <path d="M6 13L1 7L6 1" stroke="#696460" stroke-width="1.5" stroke-linecap="round"/>
</symbol>

<symbol id="gh-icon-right-arrow" viewBox="0 0 8 16" fill="none" xmlns="http://www.w3.org/2000/svg">
  <path d="M1 1L6 7L0.999999 13" stroke="#696460" stroke-width="1.5" stroke-linecap="round"/>
</symbol>

<symbol id="gh-icon-pause" viewBox="0 0 20 25" fill="none" xmlns="http://www.w3.org/2000/svg">
  <rect x="1" y="1" width="6" height="23" rx="1" stroke="#696460" stroke-width="2"/>
  <rect x="13" y="1" width="6" height="23" rx="1" stroke="#696460" stroke-width="2"/>
</symbol>

<symbol id="gh-icon-play" viewBox="0 0 48 48" fill="none" xmlns="http://www.w3.org/2000/svg">
  <circle cx="24" cy="24" r="24" fill="white"/> 
  <path d="M36.5 24.866L18.5 35.2583C17.8333 35.6432 17 35.1621 17 34.3923L17 13.6077C17 12.8379 17.8333 12.3568 18.5 12.7417L36.5 23.134C37.1667 23.5189 37.1667 24.4811 36.5 24.866Z" stroke="#696460" stroke-width="2" stroke-linejoin="round"/>
</symbol>

<symbol id="gh-arrow-down" viewBox="0 0 18 18" fill="none" xmlns="http://www.w3.org/2000/svg">
  <path d="M1 9.53125L9 16.9979L17 9.53125" stroke="white" stroke-width="1.5" stroke-linecap="round" stroke-linejoin="round"/>
  <path d="M9 1V17" stroke="white" stroke-width="1.5" stroke-linecap="round" stroke-linejoin="round"/>
</symbol>



</defs>
</svg>