<svg width="16" height="16" viewBox="0 0 16 16" fill="none" xmlns="http://www.w3.org/2000/svg">
<path d="M8.00002 0C5.82734 0 5.55489 0.00921719 4.7016 0.0481342C3.8501 0.0869798 3.26855 0.222237 2.75968 0.419966C2.23361 0.624411 1.78747 0.897974 1.34273 1.34271C0.897974 1.78744 0.624411 2.23363 0.41999 2.7597C0.222213 3.26855 0.0870036 3.8501 0.0481104 4.7016C0.00919338 5.55489 0 5.82734 0 8.00002C0 10.1727 0.00919338 10.4451 0.0481104 11.2984C0.0870036 12.1499 0.222213 12.7314 0.41999 13.2403C0.624435 13.7664 0.897998 14.2125 1.34273 14.6573C1.78749 15.102 2.23361 15.3756 2.75968 15.58C3.26855 15.7778 3.8501 15.913 4.7016 15.9519C5.55489 15.9908 5.82734 16 8.00002 16C10.1727 16 10.4451 15.9908 11.2984 15.9519C12.1499 15.913 12.7314 15.7778 13.2403 15.58C13.7664 15.3756 14.2125 15.102 14.6573 14.6573C15.102 14.2125 15.3756 13.7664 15.58 13.2403C15.7778 12.7314 15.913 12.1499 15.9519 11.2984C15.9908 10.4451 16 10.1727 16 8.00002C16 5.82734 15.9908 5.55489 15.9519 4.7016C15.913 3.8501 15.7778 3.26855 15.58 2.7597C15.3756 2.23363 15.102 1.78744 14.6573 1.34271C14.2125 0.897974 13.7664 0.624411 13.2403 0.419966C12.7314 0.222237 12.1499 0.0869798 11.2984 0.0481342C10.4451 0.00921719 10.1727 0 8.00002 0ZM8.00002 1.44143C10.1361 1.44143 10.3891 1.4496 11.2327 1.48809C12.0127 1.52365 12.4363 1.65397 12.7182 1.76353C13.0916 1.90867 13.3581 2.08201 13.638 2.36196C13.918 2.6419 14.0913 2.90842 14.2365 3.28182C14.346 3.56372 14.4764 3.98733 14.5119 4.76731C14.5504 5.61089 14.5586 5.86392 14.5586 8C14.5586 10.1361 14.5504 10.3891 14.5119 11.2327C14.4764 12.0127 14.346 12.4363 14.2365 12.7182C14.0913 13.0916 13.918 13.3581 13.638 13.638C13.3581 13.918 13.0916 14.0913 12.7182 14.2365C12.4363 14.346 12.0127 14.4764 11.2327 14.5119C10.3893 14.5504 10.1362 14.5586 8 14.5586C5.86375 14.5586 5.61079 14.5504 4.76731 14.5119C3.98731 14.4764 3.56372 14.346 3.28184 14.2365C2.90839 14.0913 2.6419 13.918 2.36198 13.638C2.08204 13.3581 1.90867 13.0916 1.76353 12.7182C1.65397 12.4363 1.52367 12.0127 1.48809 11.2327C1.4496 10.3891 1.44143 10.1361 1.44143 8C1.44143 5.86392 1.4496 5.61089 1.48809 4.76731C1.52367 3.98731 1.65397 3.56372 1.76353 3.28184C1.90867 2.90839 2.08204 2.6419 2.36196 2.36198C2.6419 2.08201 2.90842 1.90867 3.28182 1.76353C3.56372 1.65397 3.98733 1.52365 4.76731 1.48809C5.61089 1.4496 5.86392 1.44143 8 1.44143" fill="#404040"/>
<path d="M7.99973 10.6666C6.52693 10.6666 5.33303 9.47274 5.33303 7.99999C5.33303 6.52719 6.52693 5.33329 7.99973 5.33329C9.47248 5.33329 10.6664 6.52719 10.6664 7.99999C10.6664 9.47274 9.47248 10.6666 7.99973 10.6666ZM7.99973 3.89186C5.73085 3.89186 3.8916 5.73111 3.8916 7.99999C3.8916 10.2688 5.73085 12.1081 7.99973 12.1081C10.2686 12.1081 12.1078 10.2688 12.1078 7.99999C12.1078 5.73111 10.2686 3.89186 7.99973 3.89186M13.2301 3.72955C13.2301 4.25976 12.8003 4.68954 12.2701 4.68954C11.74 4.68954 11.3101 4.25976 11.3101 3.72955C11.3101 3.19936 11.74 2.76953 12.2701 2.76953C12.8003 2.76953 13.2301 3.19936 13.2301 3.72955" fill="#404040"/>
</svg>
