<svg width="16" height="16" viewBox="0 0 16 16" fill="none" xmlns="http://www.w3.org/2000/svg">
<path d="M0 8.0008C0.0416042 5.73017 0.843284 3.83398 2.40664 2.31383C3.97 0.793679 5.83418 0.0208021 8.0008 0C10.3338 0.0416042 12.246 0.838484 13.7358 2.39064C15.2255 3.94279 15.9808 5.81338 16.0016 8.0008C15.96 10.2506 15.1583 12.142 13.595 13.6734C12.0316 15.2031 10.1674 15.9792 8.0008 16C7.25033 16 6.50145 15.8848 5.75098 15.656C5.89659 15.4271 6.0422 15.1663 6.18782 14.8751C6.35424 14.5215 6.56226 13.8542 6.81348 12.8749C6.87589 12.6045 6.9703 12.2396 7.09511 11.7804C7.24072 12.03 7.49035 12.2588 7.84558 12.4684C8.78328 12.9053 9.77218 12.8637 10.8139 12.3436C11.8972 11.718 12.6477 10.7499 13.0637 9.43774C13.4381 8.06321 13.3917 6.78628 12.9229 5.61016C12.454 4.43244 11.6156 3.58436 10.4074 3.06271C8.88729 2.62586 7.40714 2.67227 5.9702 3.20352C4.53325 3.73477 3.53315 4.64687 2.9699 5.93819C2.82428 6.41664 2.73627 6.89189 2.70427 7.36074C2.67227 7.82958 2.68827 8.28723 2.75068 8.73527C2.81308 9.18332 2.9699 9.58496 3.21952 9.93859C3.46915 10.2922 3.80358 10.5643 4.21962 10.7515C4.32363 10.7931 4.40684 10.7931 4.46925 10.7515C4.55246 10.7099 4.63566 10.5435 4.71887 10.2522C4.80208 9.961 4.83408 9.76258 4.81328 9.65857C4.79248 9.61696 4.75088 9.54336 4.68847 9.43934C4.25163 8.73047 4.10441 7.9864 4.25163 7.20552C4.39724 6.42464 4.72047 5.76218 5.21972 5.22132C5.991 4.53325 6.89189 4.15882 7.92239 4.09641C8.9529 4.034 9.83458 4.31563 10.5627 4.93969C10.9579 5.39734 11.2139 5.9494 11.3275 6.59586C11.4411 7.24232 11.4427 7.86159 11.3275 8.45525C11.2123 9.04891 11.0091 9.60576 10.7179 10.1274C10.1962 10.9403 9.58176 11.3563 8.87449 11.3771C8.45845 11.3563 8.11921 11.1947 7.85839 10.8923C7.59756 10.5899 7.51915 10.241 7.62476 9.84578C7.66637 9.61696 7.79118 9.16892 7.9992 8.50165C8.20722 7.83438 8.32243 7.33513 8.34324 7.0023C8.28083 6.21022 7.91599 5.80378 7.24873 5.78298C6.72707 5.84538 6.34303 6.08061 6.09181 6.48545C5.84058 6.89029 5.70617 7.35594 5.68537 7.87599C5.74777 8.48085 5.84218 8.89689 5.967 9.12571C5.73817 10.0634 5.56056 10.8139 5.43574 11.3755C5.39414 11.5212 5.27893 11.9692 5.09171 12.7197C4.90449 13.4701 4.80048 14.043 4.77968 14.4382V15.3135C3.30113 14.6255 2.13301 13.6318 1.28013 12.3292C0.427243 11.0267 0 9.58336 0 8.0008Z" fill="#404040"/>
</svg>
