<svg viewBox="0 10 220 36" fill="none" xmlns="http://www.w3.org/2000/svg">
<title>Garnet Hill</title>
<path d="M180.151 40.113C180.151 40.8337 179.198 41.3514 178.103 41.43V42C179.224 42 180.537 41.8493 181.651 41.8493C182.765 41.8493 183.886 42 185 42V41.43C183.905 41.3514 183.165 40.8337 183.165 40.113V36.4505C183.165 34.131 183.326 30.2326 183.371 26.2031L182.727 26C181.877 26.9042 179.462 28.018 178 28.1687L178.148 28.7387C180.209 28.7387 180.144 29.3088 180.144 32.3423V40.113H180.151Z" fill="#696460"/>
<path d="M182 19C183 19 184 19.9827 184 20.9723C184 22.0104 183 23 182 23C181 23 180 22.0104 180 20.9723C180 19.9343 181 19 182 19Z" fill="#696460"/>
<path d="M196.982 40.1357C196.982 40.8478 197.796 41.3591 199 41.4368V42C197.768 42 196.536 41.8511 195.312 41.8511C194.087 41.8511 192.756 42 191.531 42V41.4368C192.735 41.3591 193.782 40.8478 193.782 40.1357V24.0561C193.782 18.0877 193.372 17.7447 191.163 17.9648L191 17.2915C193.294 16.7737 194.965 16.0551 196.749 15L197.315 15.123C197.138 17.2139 197.046 20.8907 197.032 23.8231L196.989 40.1292L196.982 40.1357Z" fill="#696460"/>
<path d="M166.214 27.4621C165.403 27.5006 159.262 27.5584 156.493 27.5584C153.724 27.5584 147.583 27.4942 146.772 27.4621L146.873 18.2475C146.886 17.2586 147.537 16.6614 149.025 16.5587V16C147.791 16 146.316 16.1477 145.083 16.1477C143.849 16.1477 142.234 16 141 16V16.5587C142.495 16.6614 143.373 17.2586 143.373 18.2475L143.474 39.7525C143.474 40.7414 142.71 41.3386 141.221 41.4413V42C142.462 42 143.849 41.8523 145.083 41.8523C146.316 41.8523 147.423 42 148.663 42V41.4413C147.181 41.345 146.645 40.7414 146.658 39.7525L146.766 28.9839C147.577 28.9454 153.738 28.8876 156.5 28.8876C159.262 28.8876 165.423 28.9454 166.228 28.9839L166.342 39.7525C166.355 40.7414 165.812 41.3386 164.33 41.4413V42C165.571 42 166.677 41.8523 167.917 41.8523C169.157 41.8523 170.545 42 171.779 42V41.4413C170.29 41.345 169.519 40.7414 169.526 39.7525L169.627 18.2475C169.627 17.2586 170.512 16.6614 172 16.5587V16C170.766 16 169.151 16.1477 167.917 16.1477C166.684 16.1477 165.202 16 163.968 16V16.5587C165.463 16.6614 166.114 17.2586 166.127 18.2475L166.228 27.4621H166.214Z" fill="#696460"/>
<path d="M44.5875 34.0668C40.575 34.0668 37.9187 34.8661 37.9187 37.808C37.9187 39.5207 38.7125 40.8439 40.7563 40.8439C42.05 40.8439 43.55 40.0648 44.5938 39.1715V34.0668H44.5875ZM36.6188 26.8329C38.45 26.2888 39.2688 26 41.2688 26C45.9625 26 47.5 28.3307 47.5 31.7697V38.6946C47.5 39.6282 47.8313 40.2529 48.5 40.2529C48.9563 40.2529 49.2938 40.1387 49.7063 39.9439L50 40.7768L46.375 43C45.7938 42.4962 45.0813 41.6365 44.6688 40.5484C42.9812 41.8917 41.2938 42.8052 39.2938 42.8052C36.2062 42.8052 35 39.9976 35 38.1304C35 34.3153 39.4563 32.9854 44.5875 32.9854V31.501C44.5875 29.3584 43.3125 27.9546 41.0938 27.9546C38.875 27.9546 37.375 29.0292 37.0062 30.2517L36.4063 30.1241L36.6313 26.8396L36.6188 26.8329Z" fill="#696460"/>
<path d="M59.9547 40.1284C59.9547 40.8172 60.597 41.3111 62.2898 41.4346V42C61.1323 42 59.5533 41.8505 58.3958 41.8505C57.2383 41.8505 56.0741 42 54.9166 42V41.4346C56.054 41.3501 56.8368 40.8432 56.8368 40.1284V33.3176C56.8368 29.4379 56.6027 28.6775 55.3783 28.6775C54.9768 28.6775 54.5486 28.7295 54.107 28.84L54 28.0991C55.8332 27.6832 57.4323 26.7929 59.0381 26L59.6068 26.1235L59.8276 29.5288H59.9146C61.527 27.5727 63.2265 26.1235 65.1801 26.1235C65.9362 26.1235 66.2841 26.234 67 26.4224V29.6653L66.4647 29.7888C66.2239 28.9245 65.3608 28.2681 64.1163 28.2681C61.6876 28.2681 59.9681 30.2047 59.9681 32.8172V40.1154L59.9547 40.1284Z" fill="#696460"/>
<path d="M107.839 30.8256C108.359 30.8256 108.535 30.5632 108.535 29.8976C108.535 28.2272 106.623 27.0368 104.764 27.0368C101.851 27.0368 100.336 28.8288 99.7058 30.8256H107.846H107.839ZM109.315 41.4816C109.139 41.6672 107.234 42 105.674 42C99.8033 42 96 38.3776 96 33.9424C96 29.5072 99.3417 26 104.673 26C107.885 26 112 27.7088 112 30.7872C112 31.3056 111.61 31.8624 110.914 31.8624H99.4653C99.3287 32.5088 99.2702 33.3856 99.2702 34.0896C99.2702 37.84 102.768 40.144 107.013 40.144C108.502 40.144 110.147 39.4656 111.278 38.4992L111.655 38.7744L109.315 41.4816V41.4816Z" fill="#696460"/>
<path d="M122.315 27.7179V36.6978C122.315 38.9236 123.076 39.6655 124.694 39.6655C125.849 39.6655 126.81 39.0579 127.55 38.5782L128 39.0451L124.901 42C121.568 42 119.092 40.5417 119.092 37.4333V27.7115H116.159L116 27.1935C119.002 26.2277 120.613 24.8206 121.118 22L122.176 22.1471V26.5283L127.841 26.4516V27.7627L122.315 27.7115V27.7179Z" fill="#696460"/>
<path d="M25.6984 16.3929L25.6003 21.4163L24.9205 21.3647C23.5803 17.689 19.8736 16.193 16.3173 16.193C9.05426 16.193 3.96165 20.9455 3.96165 27.4521C3.96165 35.4547 9.3419 40.807 18.3962 40.807C19.9782 40.807 24.1098 40.2847 24.1098 38.3759V34.1134C24.1098 32.6432 24.0902 32.1595 20.9784 32.0306V31.3599C22.5474 31.4373 24.5217 31.5082 25.6919 31.5082C26.8621 31.5082 28.8363 31.4309 30 31.3599V32.0306C27.7119 32.0306 27.4439 32.8044 27.4439 33.9974V40.6136C24.1883 40.7619 22.1225 42 17.4744 42C8.17825 42.0064 0 37.5892 0 28.3549C0 20.0879 7.13227 15 16.0166 15C18.7949 15 21.959 16.0253 24.0183 17.0571C24.7178 17.4053 25.0185 16.7089 25.0185 16.3219L25.6984 16.3993V16.3929Z" fill="#696460"/>
<path d="M88.9657 40.1245C88.9657 40.8409 89.9061 41.3488 91 41.4335V42C89.8933 42 88.5818 41.8502 87.4751 41.8502C86.3684 41.8502 85.2552 42 84.1485 42V41.4335C85.236 41.3488 85.9845 40.8409 85.9845 40.1245V32.3297C85.9845 29.2169 84.43 27.9862 81.5064 27.9862C79.7983 27.9862 78.3653 28.976 77.1306 30.2523V40.1245C77.1306 40.8409 77.8535 41.3488 78.9475 41.4335V42C77.8343 42 76.7276 41.8502 75.6209 41.8502C74.5141 41.8502 73.2027 42 72.096 42V41.4335C73.1835 41.3488 74.1303 40.8409 74.1303 40.1245V32.805C74.1303 29.1844 73.7721 28.8197 72.1216 28.8197L72 28.2532C73.7912 27.7257 75.3522 27.0224 76.5485 26L77.1626 26.1042L77.2074 29.0867C79.0178 27.4522 81.0074 26.1042 83.6943 26.1042C87.3343 26.1042 88.9849 28.6504 88.9849 31.8282V40.1311L88.9657 40.1245Z" fill="#696460"/>
<path d="M210.235 40.1357C210.235 40.8478 210.947 41.3591 212 41.4368V42C210.922 42 209.85 41.8511 208.773 41.8511C207.695 41.8511 206.536 42 205.465 42V41.4368C206.518 41.3591 207.435 40.8478 207.435 40.1357V24.0561C207.435 18.0877 207.075 17.7447 205.142 17.9648L205 17.2915C207.007 16.7737 208.469 16.0551 210.03 15L210.526 15.123C210.365 17.2139 210.29 20.8907 210.278 23.8231L210.235 40.1292V40.1357Z" fill="#696460"/>
</svg>
