<svg width="46" height="48" viewBox="0 0 46 48" fill="none" xmlns="http://www.w3.org/2000/svg">
<path d="M0 47.1794C2.39 39.6394 6.11002 32.4794 10.96 26.1994C13.45 23.0194 16.03 19.7494 19.54 17.5994C23.02 15.4394 27.05 13.9294 31.18 13.9594L31.31 14.3894L26.57 17.7994C20.76 22.5094 14.6 26.8494 9.95001 32.8594C6.29001 37.3394 3.09998 42.1894 0.419983 47.3394L0 47.1794Z" fill="#696460"/>
<path d="M1.58988 32.04C-1.78012 21.81 4.77987 10.92 13.7699 6.04C23.3999 0.500001 34.8598 0.13 45.6198 0C45.3498 5.56 45.2399 11.1 44.2799 16.77C42.7399 26.71 36.5399 37.41 26.2299 40.29C21.2099 41.73 15.7498 41.25 11.3698 38.9L11.5299 38.48C20.7799 40.72 30.2298 36.63 34.9198 28.55C39.8098 20.61 40.9999 11.05 41.8499 1.76L43.6798 3.73C38.6798 3.57 33.7199 3.53 28.8499 4.08C19.3299 5.13 9.23986 9.08001 4.25986 17.72C1.84986 21.93 0.769881 27.08 2.02988 31.91L1.59989 32.04H1.58988Z" fill="#696460"/>
</svg>
