<svg width="52" height="44" viewBox="0 0 52 44" fill="none" xmlns="http://www.w3.org/2000/svg">
<path d="M0.00999451 42.9341C8.44999 35.8574 17.41 29.2675 26.43 22.728C30.83 19.4037 42.09 10.8746 46.33 7.64264L47.99 6.38343C50.9 4.02451 46.69 0.423171 43.91 2.94159C37.79 8.96901 31.2 15.5169 24.87 21.3429C16.84 28.7386 8.73 36.0588 0.229996 43.1104L0 42.9425C7.26 34.9759 14.89 27.2947 22.61 19.6807C26.47 15.8695 30.44 12.1422 34.43 8.43174L40.45 2.89122C41.5 1.93422 42.79 0.507117 44.4 0.204906C49.81 -1.16344 53.72 4.65412 49.45 7.78535L47.75 9.00259C43.45 12.0835 31.85 20.4614 27.42 23.6682C18.55 30.3504 9.63 36.9822 0.199997 43.1188L0 42.9257L0.00999451 42.9341Z" fill="#696460"/>
<path d="M45.7719 4.7041C45.4619 6.60131 43.6819 8.09557 41.4219 8.35581C41.7319 6.4586 43.5119 4.97273 45.7719 4.7041Z" fill="#696460"/>
<path d="M46.5494 8.90976C50.0194 15.0883 43.6094 20.8639 39.0094 25.0612C35.6594 28.4275 32.4194 31.8274 30.9194 35.9996C30.4794 37.3679 30.2894 38.8118 30.3794 40.2977L30.1094 40.3481C29.4894 38.9209 29.2694 37.3343 29.4894 35.7729C30.3294 25.4558 50.3094 19.697 45.3494 9.34629L46.5394 8.90137L46.5494 8.90976Z" fill="#696460"/>
<path d="M43.4628 6.6772C37.9728 3.36968 30.7028 2.62254 24.5428 5.10738L24.3828 4.89752C29.8228 0.9352 39.6828 1.02755 44.1928 6.05599L43.4628 6.6772V6.6772Z" fill="#696460"/>
</svg>
