<svg width="52" height="48" viewBox="0 0 52 48" fill="none" xmlns="http://www.w3.org/2000/svg">
<path d="M34.9874 9.66136C32.1677 12.4076 29.3203 15.1263 26.6659 18.0287C24.6637 16.4122 22.7441 14.6854 20.8612 12.9403C19.1804 11.1677 16.6913 9.67973 16.3055 7.08045C15.4238 1.64307 22.1379 -1.95736 25.9679 2.12067L27.1804 3.32387C27.2538 3.35143 25.9587 3.32388 25.9771 3.33306C30.7624 -4.43725 41.132 2.92893 34.9966 9.66136H34.9874ZM33.7749 8.44897C35.3088 6.83246 34.5833 4.24235 32.9208 3.10344C30.7532 1.68899 28.8704 3.04833 27.1895 4.54545L26.4915 5.06898L25.9771 4.54545C25.9771 4.54545 24.7739 3.33306 24.7648 3.32387C22.34 0.623555 17.6558 2.99323 18.8039 6.52936C19.0427 7.38354 19.6948 8.06321 20.3102 8.66941C22.6982 11.1126 25.0128 13.6108 27.1895 16.2468H25.9771C28.6774 13.7486 31.2308 11.1034 33.7749 8.44897Z" fill="#696460"/>
<path d="M17.6579 28.9125C14.6729 26.4418 6.48002 19.7186 2.67753 21.0687C2.53976 21.2708 2.53976 21.5555 2.67753 21.6841C4.34915 23.2271 6.07593 24.9171 7.65571 26.5245C8.90484 27.8103 14.9209 33.9825 16.0506 35.103C18.9713 38.4004 23.3065 40.2098 27.6876 40.0904C31.7289 39.7873 36.0182 39.7322 39.9493 41.1466C43.2007 42.2672 45.9929 44.3796 47.9493 46.9881L47.5818 47.3555C45.0285 45.4634 42.2087 44.0857 39.288 43.5071C36.3305 42.956 33.2444 42.9468 30.2594 43.3142C28.7072 43.5346 26.7508 43.6632 25.1068 43.4061C21.6074 42.9284 18.3192 41.2385 15.7934 38.8045C14.6453 37.6656 13.5707 36.4073 12.4409 35.2592C9.25382 31.9251 5.61665 28.3614 2.3285 25.0916L1.48358 24.2558C-1.47392 21.8862 0.289458 17.7989 4.13787 18.5245C9.87835 19.7277 14.2962 24.3936 18.0344 28.5543L17.6671 28.9125H17.6579Z" fill="#696460"/>
<path d="M51.772 32.0263C50.5137 31.0068 49.2738 29.9414 48.0981 28.8117C45.9581 26.7176 43.7721 24.0907 40.585 25.3766C37.3887 26.3777 34.9638 28.527 31.345 29.0046C29.5724 29.1699 27.9834 29.0688 26.4036 29.0505C24.0156 29.0688 19.7906 28.8392 20.5529 32.2009L19.7906 31.4385L25.2923 32.8622C27.1293 33.3122 28.9754 33.7806 30.8215 34.1113L30.794 34.4511C28.8744 34.3776 26.9915 34.1664 25.0995 33.9735C24.7596 33.9368 18.9456 33.2571 18.762 33.2387C18.6058 32.0355 18.3579 30.8599 18.9181 29.5556C21.3429 25.248 28.1671 26.8737 32.0799 26.1389C35.6527 25.2388 38.9776 22.9334 42.872 23.3743C45.5172 23.8978 47.1705 26.2583 48.7594 28.1779C49.7973 29.3995 50.8811 30.6027 52.0017 31.76L51.772 32.0172V32.0263Z" fill="#696460"/>
</svg>
