<svg width="40" height="27" viewBox="0 0 40 27" fill="none" xmlns="http://www.w3.org/2000/svg">
<g clip-path="url(#clip0_5085_2484)">
<path d="M39.7339 26.2316C31.0801 26.1973 19.2487 26.2202 10.5987 26.2887C7.37926 26.3191 4.15597 26.3458 0.932683 26.4143C0.41513 26.4257 -0.00728425 25.9995 0.00413236 25.4857L0.194409 1.0123C0.194409 0.605104 0.529297 0.277828 0.932683 0.274023L38.9881 2.40102e-05C39.5437 -0.00378153 39.9965 0.445272 40.0041 1.00088C40.0308 8.28848 39.8215 18.8374 39.7377 26.2354L39.7339 26.2316ZM38.2384 24.736C38.0938 17.7376 38.01 7.91174 37.972 1.0123L38.9881 2.02457L0.928878 1.75057L1.66715 1.0123L1.85743 25.4857L0.928878 24.5572C12.7717 24.7741 26.3613 24.7665 38.2346 24.7398L38.2384 24.736Z" fill="#696460"/>
<path d="M3.97656 3.50694C9.81045 7.19451 15.2714 11.411 20.6258 15.7494H19.2862C24.8309 11.2474 30.4859 6.87104 36.5177 3.03125C34.0441 5.62663 31.4221 8.05075 28.762 10.4444C26.102 12.8229 23.381 15.1291 20.622 17.3895C20.2262 17.713 19.663 17.7016 19.2824 17.3895C17.9543 16.2974 16.63 15.1976 15.3247 14.0787C11.405 10.707 7.54996 7.2554 3.97656 3.50694Z" fill="#696460"/>
<path d="M36.7985 22.6753C33.3088 19.2884 30.0589 15.6921 27.064 11.8752C26.7062 11.4109 26.7938 10.7487 27.258 10.391C27.7185 10.0371 28.3769 10.1208 28.7346 10.5775C31.6915 14.4211 34.3782 18.4588 36.8023 22.6753H36.7985Z" fill="#696460"/>
<path d="M3.11719 22.675C5.53751 18.4584 8.22422 14.4208 11.1811 10.5772C11.5426 10.1167 12.2086 10.0368 12.6653 10.3983C13.1219 10.756 13.2019 11.4144 12.8518 11.8748C9.85679 15.6918 6.60686 19.288 3.11719 22.675Z" fill="#696460"/>
</g>
<defs>
<clipPath id="clip0_5085_2484">
<rect width="40" height="26.418" fill="white"/>
</clipPath>
</defs>
</svg>
