<svg width="40" height="40" viewBox="0 0 40 40" fill="none" xmlns="http://www.w3.org/2000/svg">
<g clip-path="url(#clip0_5085_2452)">
<path d="M28.9451 14.0439C34.6986 15.081 39.2549 20.1329 39.6209 25.9627C39.8268 28.5516 39.1862 31.1519 37.9204 33.4091L37.9928 32.8677C38.477 34.3661 38.988 35.8531 39.3616 37.3782L39.7696 38.8957C39.8954 39.3608 39.6171 39.8374 39.1557 39.9594C36.6545 40.051 34.1381 39.9404 31.6293 39.9518C29.3912 39.8565 26.421 40.1196 24.1867 39.6506C20.3548 38.8957 16.931 36.3106 15.1504 32.8295C14.5441 31.6742 14.1019 30.4237 13.854 29.1311C13.7511 28.605 14.098 28.094 14.6242 27.9949C15.1694 27.8881 15.6956 28.2656 15.7719 28.8147C16.645 34.7893 22.0096 38.7508 27.9842 38.3047C31.5225 38.2818 35.4154 38.2437 38.9346 38.2437L38.0958 39.338C37.5277 37.3286 37.0244 35.2316 36.6164 33.1879C36.5745 33.0087 36.6088 32.8295 36.6965 32.6846C37.6459 31.1061 38.1301 29.2722 38.1987 27.4421C38.4504 21.8182 34.1877 16.69 28.6133 15.9427C27.3361 15.7025 27.6602 13.8189 28.9527 14.0325L28.9451 14.0439Z" fill="#696460"/>
<path d="M26.1399 13.1393C26.1818 20.4942 19.8564 26.5984 12.5015 26.2477C8.71922 26.2095 4.55947 26.16 0.800055 26.0685C0.361584 26.0723 -0.000631118 25.7139 0.0108073 25.2754C0.0108073 25.2106 0.0222456 25.1419 0.0413096 25.0809L1.74944 19.0339C1.74944 19.03 1.81807 19.5638 1.81807 19.5638C-2.58189 12.3729 1.39485 2.62741 9.55041 0.488433C17.786 -1.86406 26.1666 4.59481 26.1399 13.1355V13.1393ZM24.02 13.1393C23.7759 0.926904 7.52582 -2.28728 2.51962 8.8232C1.15083 12.0107 1.32241 15.8159 3.02673 18.8585C3.12205 19.0262 3.14111 19.2169 3.09536 19.3923L1.55499 25.4851L0.796242 24.4938C3.39657 24.429 5.99689 24.3985 8.60103 24.3527C10.7629 24.2726 14.0152 24.5357 16.0703 23.8189C20.6876 22.4806 24.0962 17.9625 24.02 13.1431V13.1393Z" fill="#696460"/>
<path d="M7.38747 14.6381C6.84606 14.6229 6.30464 14.3255 6.05299 13.8374C5.16461 12.1179 7.84501 10.7338 8.73339 12.4496C9.0956 13.1511 8.78677 14.1196 8.08521 14.4856C7.86788 14.5962 7.62768 14.6458 7.38747 14.6381V14.6381Z" fill="#696460"/>
<path d="M12.938 14.6128C12.3813 14.6433 11.817 14.3841 11.5425 13.7168C11.2451 12.9886 11.6302 12.0545 12.3546 11.7532C13.079 11.452 14.017 11.8257 14.3258 12.5463C14.8139 13.6749 13.8797 14.5595 12.9341 14.6167L12.938 14.6128Z" fill="#696460"/>
<path d="M18.4886 14.5774C17.6612 14.5354 16.8415 13.8682 17.0931 12.8273C17.2723 12.0914 18.0997 11.5805 18.8394 11.7521C19.579 11.9236 20.0938 12.751 19.9298 13.4907C19.7506 14.2838 19.1177 14.6079 18.4886 14.5774V14.5774Z" fill="#696460"/>
</g>
<defs>
<clipPath id="clip0_5085_2452">
<rect width="39.7979" height="40" fill="white"/>
</clipPath>
</defs>
</svg>
