<svg width="41" height="40" viewBox="0 0 41 40" fill="none" xmlns="http://www.w3.org/2000/svg">
<g clip-path="url(#clip0_5085_2467)">
<path d="M3.64494 1.59426C4.09576 1.36885 5.21871 0.872951 5.65314 0.659837C6.97281 -0.0614749 8.69822 -0.25 10.0958 0.389345C11.2556 0.87705 12.2105 1.84016 12.69 3L13.8048 5.73771C14.0466 6.37295 15.0138 8.66803 15.1982 9.2541C15.7474 10.9795 15.1285 13 13.7638 14.1557L13.2269 14.6639L11.0794 16.6926C10.9687 17.4672 11.2269 15.6393 11.2023 15.832C11.2392 15.8975 11.3089 16.0164 11.3458 16.082C12.0097 17.2951 12.9195 18.6721 13.7433 19.7828C16.563 23.5574 20.2064 26.709 24.3376 28.9672L23.4728 29.0902C24.0876 28.4631 25.6572 26.8648 26.2515 26.2582C27.8417 24.6598 30.0548 24.5369 32.0097 25.5246C32.8253 25.8607 34.8458 26.6967 35.6777 27.0369L36.899 27.5451C39.0917 28.3156 40.4605 30.8279 39.8622 33.0943C39.6777 33.9262 38.6367 35.832 38.3007 36.6189C37.8007 37.582 36.9359 38.3893 35.9236 38.791C34.1777 39.5492 32.3048 39.9139 30.4359 39.9836C22.981 40.2336 16.2392 35.8361 11.0302 30.9221C5.84986 25.9631 0.9933 19.75 0.103956 12.3771C-0.260799 9.09017 0.202317 3.14754 3.64494 1.59426ZM4.62855 3.64754C2.39084 4.68033 2.14084 9.91803 2.44412 12.1025C3.63264 21.6189 13.5589 31.8607 21.9031 36.0451C24.5425 37.2664 27.4646 38.0984 30.3785 38.0082C32.0302 37.9713 33.6818 37.668 35.1818 37.0369C35.8212 36.7992 36.3253 36.3361 36.6531 35.7418C36.9113 35.1967 37.9523 33.1885 38.0958 32.6516C38.4236 31.4098 37.8417 30.0246 36.7228 29.3934C36.4523 29.2377 35.3253 28.7705 35.0015 28.623C34.1654 28.2582 32.1654 27.3852 31.3663 27.0369L30.7597 26.7705C29.6326 26.2295 28.231 26.4631 27.3417 27.3402C26.7351 27.9344 25.1203 29.5123 24.4933 30.1311C24.2597 30.3607 23.9072 30.3975 23.6367 30.2377C20.7597 28.668 18.1122 26.6803 15.7925 24.3648C13.5015 22.0861 11.522 19.418 9.95642 16.5861L9.93592 16.5533L9.92773 16.5369V16.5287L9.91953 16.5246C9.89084 16.7131 10.1572 14.8811 10.0466 15.6557L12.0753 13.5082C13.44 12.2623 14.0466 10.9221 13.1695 9.20492L11.9646 6.5082L10.7679 3.80738C10.2023 2.47131 8.53018 1.79508 7.21051 2.37705C6.51789 2.68443 5.33346 3.30328 4.62445 3.63934L4.62855 3.64754Z" fill="#696460"/>
<path d="M22.9678 1.21534C31.9186 0.227638 39.9473 8.25633 38.9596 17.2071C38.9309 17.4776 38.6891 17.6744 38.4186 17.6457C38.1686 17.6211 37.9801 17.408 37.976 17.1662C37.9309 15.1785 37.5211 13.2317 36.7711 11.4326C34.5375 5.93665 28.9227 2.26043 23.0088 2.19895C22.4022 2.18665 22.3571 1.28092 22.9678 1.21534Z" fill="#696460"/>
<path d="M23.1747 6.13251C29.2444 5.32514 34.8469 10.9276 34.0477 16.9973C34.0108 17.2883 33.7485 17.4932 33.4616 17.4604C33.1993 17.4276 33.0067 17.2104 32.9985 16.9563C32.937 15.6571 32.646 14.3948 32.1501 13.235C30.6624 9.68169 27.0641 7.31694 23.2198 7.18579C22.5805 7.1612 22.5395 6.21448 23.1747 6.13251Z" fill="#696460"/>
<path d="M23.3817 11.043C25.7423 10.5963 28.2259 12.2192 28.9472 14.4815C29.1645 15.1372 29.6112 17.379 28.4718 17.252C28.2177 17.2069 28.0333 17.002 28.0046 16.7602C27.853 15.5348 27.3612 14.4446 26.5415 13.6331C25.73 12.8135 24.6481 12.3217 23.4309 12.1782C22.7751 12.1167 22.7382 11.1618 23.3776 11.0471L23.3817 11.043Z" fill="#696460"/>
</g>
<defs>
<clipPath id="clip0_5085_2467">
<rect width="40.0041" height="40" fill="white"/>
</clipPath>
</defs>
</svg>
